<?xml version="1.0" standalone="no"?>
<!DOCTYPE svg PUBLIC "-//W3C//DTD SVG 20010904//EN"
 "http://www.w3.org/TR/2001/REC-SVG-20010904/DTD/svg10.dtd">
<svg version="1.0" xmlns="http://www.w3.org/2000/svg"
 width="260.000000pt" height="260.000000pt" viewBox="0 0 260.000000 260.000000"
 preserveAspectRatio="xMidYMid meet">
<metadata>
Created by potrace 1.14, written by Peter Selinger 2001-2017
</metadata>
<g transform="translate(0.000000,260.000000) scale(0.100000,-0.100000)"
fill="#000000" stroke="none">
<path d="M0 1300 l0 -1300 1300 0 1300 0 0 1300 0 1300 -1300 0 -1300 0 0
-1300z m2142 510 c105 -39 177 -130 193 -242 l6 -48 -125 0 -126 0 0 31 c0 22
-10 41 -34 65 -30 30 -41 34 -84 34 -90 0 -158 -45 -168 -112 -9 -54 27 -88
139 -133 222 -89 306 -178 307 -326 0 -76 -12 -118 -51 -175 -77 -114 -291
-178 -468 -140 -166 35 -267 137 -279 283 l-5 63 120 0 120 0 7 -41 c15 -93
59 -129 156 -129 67 0 122 29 144 74 38 80 8 126 -121 181 -171 72 -248 128
-287 207 -53 106 -27 240 64 322 114 102 341 143 492 86z m-1621 -152 c1 -95
4 -245 8 -333 l6 -159 121 329 121 330 107 3 106 3 0 -28 c1 -63 38 -625 42
-628 2 -2 53 144 113 325 l110 330 122 0 c68 0 123 -3 123 -6 0 -4 -82 -232
-181 -508 -100 -275 -186 -513 -191 -528 l-10 -28 -129 0 -129 0 0 24 c0 44
-40 569 -44 573 -2 2 -54 -132 -116 -297 l-114 -300 -127 0 -127 0 -6 93 c-9
127 -46 890 -46 938 l0 39 120 0 120 0 1 -172z"/>
</g>
</svg>
